<svg xmlns="http://www.w3.org/2000/svg" viewBox="0 0 574.28 451.22"><defs><style>.cls-1{fill:#585858;}</style></defs><title>Asset 1</title><g id="Layer_2" data-name="Layer 2"><g id="Layer_1-2" data-name="Layer 1"><path class="cls-1" d="M500.52,473.43" transform="translate(0 -109.11)"/><path class="cls-1" d="M177.75,438.37q-24.89,12.58-54.69,12.58-50.86,0-87-36.1T0,327.89q0-50.86,36.1-87t87-36.1q29.8,0,54.69,12.58V204.83h68.37V437.27q0,50.87-36.1,87t-87,36.1q-50.86,0-87-36.1l48.4-48.4A52,52,0,0,0,123.06,492a53,53,0,0,0,38.83-16.13Q177.2,460.51,177.75,438.37Zm-16-71.79a54.69,54.69,0,0,0-38.7-93.39,54.72,54.72,0,0,0-38.7,93.39,52.71,52.71,0,0,0,38.7,16A52.72,52.72,0,0,0,161.76,366.58Z" transform="translate(0 -109.11)"/><path class="cls-1" d="M435.36,289.05a53.42,53.42,0,0,0-38.83-15.86,54.62,54.62,0,0,0-54.69,54.69V450.95H273.47V204.83h68.37v12.58q24.88-12.58,54.69-12.58,50.86,0,87,36.1Z" transform="translate(0 -109.11)"/><path class="cls-1" d="M564.3,119.09a34.33,34.33,0,0,1,0,48.4,34.18,34.18,0,0,1-58.38-24.2,34.23,34.23,0,0,1,58.38-24.2Zm-58.38,85.73h68.37V450.95H505.91Z" transform="translate(0 -109.11)"/></g></g></svg>